<?xml version="1.0" encoding="UTF-8"?>
<!DOCTYPE svg PUBLIC "-//W3C//DTD SVG 1.0//EN" "http://www.w3.org/TR/2001/REC-SVG-20010904/DTD/svg10.dtd">
<!-- Creator: CorelDRAW X8 -->
<svg xmlns="http://www.w3.org/2000/svg" xml:space="preserve" width="161.6mm" height="151.8mm" version="1.0" style="shape-rendering:geometricPrecision; text-rendering:geometricPrecision; image-rendering:optimizeQuality; fill-rule:evenodd; clip-rule:evenodd"
viewBox="0 0 16160 15180"
 xmlns:xlink="http://www.w3.org/1999/xlink">
 <defs>
  <style type="text/css">
   <![CDATA[
    .fil0 {fill:#003F88}
   ]]>
  </style>
 </defs>
 <g id="Camada_x0020_1">
  <metadata id="CorelCorpID_0Corel-Layer"/>
  <g id="logo.cdr">
   <path class="fil0" d="M12523 3211l2403 0 0 889 -2403 0 0 -889zm3637 806l0 423c-9,54 -37,56 -111,125l-428 395c-45,42 -220,226 -267,226l-3407 0c-32,0 -347,-289 -391,-333 -79,-81 -366,-305 -366,-358l0 -1844c0,-52 20,-30 95,-103l502 -437c42,-39 62,-47 106,-90 36,-35 55,-62 120,-62l2798 0 0 -741 -3308 0c-38,0 -49,-11 -49,-49l0 -1120c0,-38 11,-49 49,-49l3768 0c30,0 91,59 118,80l552 435c53,39 166,146 219,160l0 3342z"/>
   <path class="fil0" d="M6731 1235l2550 0 0 1366 -2550 0 0 -1366zm-1333 -478l0 4462 1415 0 0 -1482c249,0 450,17 708,17 246,0 493,0 740,0l938 1465 1514 0 -503 -747c-78,-113 -482,-671 -501,-751l716 -601c24,-60 7,-1146 8,-1309 0,-112 17,-183 17,-313l1 -659c0,-83 11,-87 -29,-136l-518 -470c-52,-42 -223,-233 -277,-233l-3341 0c-36,0 -84,58 -115,82l-672 562c-33,26 -101,63 -101,113z"/>
   <path class="fil0" d="M0 6816l0 4429 1399 0 0 -3984 2139 0c0,179 17,316 17,477 -6,1160 49,2361 49,3507l1382 0 0 -4429c0,-50 -250,-241 -300,-292 -81,-81 -513,-482 -555,-482l-3275 0c-94,0 -170,115 -226,169 -43,42 -65,49 -108,90l-214 198c-77,74 -308,275 -308,317z"/>
   <path class="fil0" d="M5612 6701l0 3639c-1,191 -41,164 152,341 37,35 53,39 91,74 66,62 96,99 170,158 43,34 314,316 360,316l3225 0c85,0 257,-174 330,-231 41,-32 61,-53 108,-89l307 -253c57,-45 95,-57 95,-102l0 -1169 -1333 0 -17 658 -2139 0c0,-928 -16,-1804 -16,-2733 397,-33 1206,-17 1629,-16 186,0 341,-17 543,-17l0 807 1382 0 0 -1268c0,-49 -18,-31 -94,-103l-320 -273c-66,-53 -400,-365 -442,-365l-3242 0c-49,0 -564,456 -684,551 -49,39 -48,59 -105,75z"/>
   <path class="fil0" d="M11618 7590c0,-237 135,-329 362,-329 169,0 183,115 247,115l165 0 0 -132 2270 0 0 132 182 0c81,0 38,-115 312,-115 85,0 152,38 201,79 142,117 185,513 -283,513 -110,0 -185,-115 -230,-115l-182 0 0 692 182 0c59,0 80,-116 296,-116 346,0 455,493 66,595 -218,57 -319,-117 -379,-117l-165 0 0 708c312,0 126,4 296,-83 256,-133 494,43 494,264 0,220 -252,364 -477,264 -156,-69 29,-83 -313,-83l0 231 -2270 0 0 -231 -198 0c-18,0 -272,237 -498,38 -294,-260 56,-665 386,-486 153,83 -15,86 310,86l0 -708 -149 0c-43,0 -149,132 -296,132 -417,0 -462,-610 17,-610 155,0 215,116 263,116l165 0 0 -692 -165 0c-78,0 -46,115 -313,115 -156,0 -296,-141 -296,-263zm-559 -889l0 2338c0,121 -17,194 -17,329l0 988c-3,237 84,209 276,399 67,66 475,490 530,490l3308 0c43,0 184,-143 218,-177l321 -288c58,-53 300,-268 300,-309l0 -3704c0,-49 -121,-127 -192,-186l-536 -452c-37,-37 -57,-70 -127,-70l-3341 0c-41,0 -147,122 -190,155 -39,29 -53,47 -85,80 -42,42 -55,46 -99,83 -101,84 -240,239 -366,324z"/>
   <path class="fil0" d="M247 2684c73,-6 757,-371 872,-428 134,-67 401,-235 527,-264 0,-285 -17,-512 -17,-790l3209 0c38,0 50,-12 50,-50l0 -1136 -3785 0c-40,0 -409,333 -474,400l-232 212c-174,139 -152,120 -150,294 4,586 0,1175 0,1762z"/>
   <path class="fil0" d="M247 3507l0 1712 1366 0c0,-567 33,-1105 33,-1679l2057 0c38,0 49,-12 49,-50l0 -1070c0,-38 -11,-49 -49,-49l-1284 0c-77,0 -1712,865 -1914,966 -61,30 -258,105 -258,170z"/>
   <path class="fil0" d="M7619 15164l198 0 0 -708 184 293c34,53 64,101 95,152 188,320 226,15 516,-424 21,-31 6,-13 28,-38l0 725 197 0 0 -1120 -181 0 -203 357c-44,81 -193,302 -208,367 -59,-39 -287,-442 -341,-532 -33,-55 -90,-133 -104,-192l-181 0 0 1120z"/>
   <path class="fil0" d="M1037 15164l197 0 0 -758c58,39 276,322 326,383 55,68 100,122 155,190 180,220 104,185 326,185l0 -1120 -214 0 0 757 -466 -571c-34,-40 -49,-56 -82,-99 -88,-111 -27,-87 -242,-87l0 1120z"/>
   <path class="fil0" d="M4328 14620c0,-555 806,-542 806,-16 0,396 -459,497 -687,292 -55,-50 -119,-176 -119,-276zm362 560c279,0 489,-92 604,-334 152,-322 -5,-818 -604,-818 -306,0 -571,250 -571,576 0,310 257,576 571,576z"/>
   <path class="fil0" d="M6401 14670l-197 0 0 -461 197 0c178,0 330,56 330,230 0,174 -152,231 -330,231zm-411 494l214 0 0 -330c348,0 271,-39 405,155 44,64 80,113 122,175l230 0 -263 -379c340,-79 333,-741 -181,-741l-527 0 0 1120z"/>
   <path class="fil0" d="M10022 14242l214 493 -428 0 214 -493zm-609 922l197 0c13,-55 93,-264 149,-264 696,0 499,-67 658,264l214 0 -445 -972c-22,-50 -51,-88 -65,-148l-214 0 -121 274c-38,78 -368,787 -373,846z"/>
   <path class="fil0" d="M15403 14258l146 348c21,50 40,80 51,129l-427 0c43,-90 169,-432 230,-477zm-625 906l214 0c6,-82 77,-172 98,-264l593 0c15,65 84,206 115,264l197 0c-38,-164 -485,-1020 -493,-1120l-214 0 -444 971c-26,50 -42,99 -66,149z"/>
   <path class="fil0" d="M13330 14554l0 99c0,319 286,506 571,527l104 0c154,-12 296,-75 378,-198l-129 -118c-131,91 -132,135 -348,135 -451,0 -573,-790 65,-790 146,0 199,77 280,131l135 -144c-204,-141 -223,-168 -497,-168 -287,0 -559,242 -559,526z"/>
   <path class="fil0" d="M2781 15164l214 0 0 -429 510 0c67,0 50,-51 50,-181l-560 0 0 -345 625 0 0 -165 -839 0 0 1120z"/>
   <path class="fil0" d="M10943 14209l379 0 0 955 197 0 0 -955 379 0 0 -165 -955 0 0 165z"/>
   <path class="fil0" d="M12474 15164l197 0 0 -1120 -197 0 0 1120z"/>
   <path class="fil0" d="M82 15164l198 0 0 -1120 -198 0 0 1120z"/>
   <path class="fil0" d="M9857 13912c221,0 169,10 304,-91l223 -189c-238,0 -230,-30 -325,70 -67,70 -151,134 -202,210z"/>
  </g>
 </g>
</svg>
